<?xml version="1.0" encoding="UTF-8" standalone="no"?>
<!-- Generator: Adobe Illustrator 16.0.0, SVG Export Plug-In . SVG Version: 6.00 Build 0)  -->

<svg
   xmlns:dc="http://purl.org/dc/elements/1.1/"
   xmlns:cc="http://creativecommons.org/ns#"
   xmlns:rdf="http://www.w3.org/1999/02/22-rdf-syntax-ns#"
   xmlns:svg="http://www.w3.org/2000/svg"
   xmlns="http://www.w3.org/2000/svg"
   xmlns:sodipodi="http://sodipodi.sourceforge.net/DTD/sodipodi-0.dtd"
   xmlns:inkscape="http://www.inkscape.org/namespaces/inkscape"
   version="1.1"
   id="Capa_1"
   x="0px"
   y="0px"
   width="348.077px"
   height="348.077px"
   viewBox="0 0 348.077 348.077"
   style="enable-background:new 0 0 348.077 348.077;"
   xml:space="preserve"
   sodipodi:docname="call-answer.svg"
   inkscape:version="0.92.4 (unknown)"><metadata
   id="metadata45"><rdf:RDF><cc:Work
       rdf:about=""><dc:format>image/svg+xml</dc:format><dc:type
         rdf:resource="http://purl.org/dc/dcmitype/StillImage" /></cc:Work></rdf:RDF></metadata><defs
   id="defs43" /><sodipodi:namedview
   pagecolor="#ffffff"
   bordercolor="#666666"
   borderopacity="1"
   objecttolerance="10"
   gridtolerance="10"
   guidetolerance="10"
   inkscape:pageopacity="0"
   inkscape:pageshadow="2"
   inkscape:window-width="1600"
   inkscape:window-height="863"
   id="namedview41"
   showgrid="false"
   inkscape:zoom="0.7537852"
   inkscape:cx="458.45021"
   inkscape:cy="182.57031"
   inkscape:window-x="1920"
   inkscape:window-y="0"
   inkscape:window-maximized="1"
   inkscape:current-layer="Capa_1" />
<circle
   style="opacity:1;fill:#ffffff;fill-opacity:1;stroke:#d6d6d6;stroke-width:3.93180251;stroke-linecap:round;stroke-linejoin:bevel;stroke-miterlimit:4;stroke-dasharray:none;stroke-dashoffset:0;stroke-opacity:1;paint-order:normal"
   id="path852"
   cx="174.0385"
   cy="174.0385"
   r="170.993" /><circle
   r="133.95889"
   cy="174.0385"
   cx="174.0385"
   id="circle839"
   style="opacity:1;fill:#5555ff;fill-opacity:1;stroke:none;stroke-width:2.60825562;stroke-linecap:round;stroke-linejoin:round;stroke-miterlimit:4;stroke-dasharray:none;stroke-dashoffset:0;stroke-opacity:0.95;paint-order:stroke fill markers" /><g
   id="g8"
   transform="matrix(0.4828726,0,0,0.4828726,89.99982,90.000088)"
   style="fill:#ffffff">
	<g
   id="g6"
   style="fill:#ffffff">
		<g
   id="g4"
   style="fill:#ffffff">
			<path
   d="M 340.273,275.083 286.518,221.322 C 275.811,210.658 258.08,210.982 247,222.066 l -27.082,27.076 c -1.711,-0.943 -3.482,-1.928 -5.344,-2.973 -17.102,-9.476 -40.509,-22.464 -65.14,-47.113 -24.704,-24.701 -37.704,-48.144 -47.209,-65.257 -1.003,-1.813 -1.964,-3.561 -2.913,-5.221 l 18.176,-18.149 8.936,-8.947 c 11.097,-11.1 11.403,-28.826 0.721,-39.521 L 73.39,8.194 C 62.708,-2.486 44.969,-2.162 33.872,8.938 l -15.15,15.237 0.414,0.411 C 14.056,31.068 9.811,38.544 6.652,46.606 3.74,54.28 1.927,61.603 1.098,68.941 -6,127.785 20.89,181.564 93.866,254.541 c 100.875,100.868 182.167,93.248 185.674,92.876 7.638,-0.913 14.958,-2.738 22.397,-5.627 7.992,-3.122 15.463,-7.361 21.941,-12.43 l 0.331,0.294 15.348,-15.029 c 11.074,-11.098 11.393,-28.83 0.716,-39.542 z"
   id="path2"
   inkscape:connector-curvature="0"
   style="fill:#ffffff" />
		</g>
	</g>
</g>
<g
   id="g10">
</g>
<g
   id="g12">
</g>
<g
   id="g14">
</g>
<g
   id="g16">
</g>
<g
   id="g18">
</g>
<g
   id="g20">
</g>
<g
   id="g22">
</g>
<g
   id="g24">
</g>
<g
   id="g26">
</g>
<g
   id="g28">
</g>
<g
   id="g30">
</g>
<g
   id="g32">
</g>
<g
   id="g34">
</g>
<g
   id="g36">
</g>
<g
   id="g38">
</g>
</svg>